<?xml version="1.0" standalone="no"?>
<!DOCTYPE svg PUBLIC "-//W3C//DTD SVG 20010904//EN"
 "http://www.w3.org/TR/2001/REC-SVG-20010904/DTD/svg10.dtd">
<svg version="1.0" xmlns="http://www.w3.org/2000/svg"
 width="600.000000pt" height="498.000000pt" viewBox="0 0 600.000000 498.000000"
 preserveAspectRatio="xMidYMid meet">
<g transform="translate(0.000000,498.000000) scale(0.100000,-0.100000)"
fill="#000000" stroke="none">
<path d="M2790 3323 l0 -560 95 -127 96 -126 -96 -126 -95 -125 0 -270 0 -269
206 -275 c114 -151 209 -275 213 -275 3 1 22 24 42 53 20 29 111 151 203 272
l166 220 0 1084 0 1085 -207 -277 -207 -276 -203 271 c-111 149 -205 273 -208
276 -3 3 -5 -247 -5 -555z m803 431 c-2 -7 -11 -10 -18 -7 -11 4 -12 9 -2 23
12 21 29 7 20 -16z m-754 -1 c-6 -7 -15 -10 -20 -7 -13 8 -3 21 15 21 12 0 13
-4 5 -14z m249 -346 l92 -125 0 -256 0 -256 25 0 25 0 0 255 0 255 168 225
c92 123 169 224 172 224 3 1 3 -449 0 -999 l-5 -1000 -179 -240 c-98 -133
-180 -239 -182 -237 -3 2 -85 114 -184 248 l-180 244 0 243 0 244 87 118 87
118 83 -111 82 -112 1 -257 0 -258 25 0 25 0 0 264 0 265 -176 238 c-97 131
-185 249 -195 262 -18 22 -19 50 -19 504 l0 480 78 -105 c42 -58 119 -162 170
-231z m120 -112 c-3 -3 -9 2 -12 12 -6 14 -5 15 5 6 7 -7 10 -15 7 -18z"/>
<path d="M3006 2363 c-6 -14 -5 -15 5 -6 7 7 10 15 7 18 -3 3 -9 -2 -12 -12z"/>
<path d="M3464 1678 l-19 -23 23 19 c12 11 22 21 22 23 0 8 -8 2 -26 -19z"/>
<path d="M3173 1365 c0 -8 4 -12 9 -9 5 3 6 10 3 15 -9 13 -12 11 -12 -6z"/>
<path d="M3947 3605 l-207 -275 -2 -1080 c-2 -594 -1 -1080 2 -1080 3 0 57 71
122 158 64 86 156 209 204 273 l88 117 199 -267 c110 -146 204 -270 208 -275
5 -6 9 462 9 1070 l0 1080 -205 273 c-112 151 -206 275 -208 278 -2 2 -97
-120 -210 -272z m196 210 c-3 -9 -8 -14 -10 -11 -3 3 -2 9 2 15 9 16 15 13 8
-4z m196 -267 l181 -241 0 -996 c0 -606 -4 -991 -9 -985 -5 5 -82 106 -170
224 l-160 215 -1 778 0 777 -27 0 -28 0 3 -774 2 -773 -167 -226 c-152 -204
-196 -256 -179 -211 3 9 6 458 6 998 l0 983 151 199 c84 109 164 216 178 236
14 21 29 37 32 38 4 0 88 -109 188 -242z m-179 -1802 c0 -2 -7 -9 -15 -16 -13
-11 -14 -10 -9 4 5 14 24 23 24 12z m375 -450 c0 -13 -4 -28 -9 -33 -5 -4 -6
-3 -3 3 4 7 -1 15 -10 18 -16 6 -12 12 22 36 1 0 1 -11 0 -24z m-742 0 c3 -8
0 -17 -8 -19 -11 -5 -13 6 -6 31 2 6 9 0 14 -12z"/>
<path d="M4136 3721 c-4 -5 -2 -12 3 -15 5 -4 12 -2 15 3 4 5 2 12 -3 15 -5 4
-12 2 -15 -3z"/>
<path d="M1103 3578 l-203 -271 0 -275 0 -275 85 -114 c47 -63 88 -120 91
-127 3 -8 -35 -67 -85 -133 l-91 -119 0 -273 0 -274 203 -273 c111 -150 205
-272 209 -271 4 1 100 126 213 277 l205 274 0 267 0 266 -95 127 c-62 82 -93
131 -88 139 4 7 47 65 96 128 l87 116 0 264 0 265 -205 275 c-113 151 -209
275 -213 276 -4 1 -98 -120 -209 -269z m396 -56 l181 -243 0 -249 0 -249 -86
-116 -87 -115 -83 112 -83 113 -1 260 0 261 -25 -1 -26 -2 0 -268 0 -268 196
-259 195 -260 0 -250 0 -250 -182 -244 c-101 -134 -185 -243 -188 -243 -3 0
-86 110 -185 243 l-180 243 5 259 5 259 81 107 81 107 87 -117 86 -117 -2
-253 -3 -252 28 0 27 0 0 264 0 265 -161 213 c-89 117 -177 234 -196 259 l-34
45 1 257 1 257 163 219 c90 120 170 228 177 240 8 11 17 20 21 19 3 -2 88
-112 187 -246z m23 -989 c-6 -2 -9 -10 -6 -15 4 -7 2 -8 -5 -4 -13 9 -5 26 12
25 9 0 8 -2 -1 -6z"/>
<path d="M1180 3490 c-9 -6 -10 -10 -3 -10 6 0 15 5 18 10 8 12 4 12 -15 0z"/>
<path d="M1256 2428 c3 -5 10 -6 15 -3 13 9 11 12 -6 12 -8 0 -12 -4 -9 -9z"/>
<path d="M1014 2288 l-19 -23 23 19 c12 11 22 21 22 23 0 8 -8 2 -26 -19z"/>
<path d="M1463 1525 c0 -8 4 -12 9 -9 5 3 6 10 3 15 -9 13 -12 11 -12 -6z"/>
<path d="M2229 3807 c-14 -17 -107 -141 -207 -274 l-182 -242 0 -264 0 -264
96 -126 96 -127 -23 -32 c-13 -18 -56 -77 -96 -130 l-73 -97 0 -263 1 -263
205 -275 c113 -151 209 -276 212 -277 4 -1 98 120 210 270 l202 271 0 274 0
274 -90 120 c-49 66 -90 122 -90 125 0 4 39 58 88 122 l87 116 5 275 5 275
-203 270 c-112 149 -207 271 -210 272 -4 2 -19 -12 -33 -30z m219 -291 l182
-244 0 -244 0 -245 -86 -114 c-47 -63 -87 -113 -90 -112 -3 1 -41 50 -85 108
l-80 106 1 260 1 259 -31 0 -30 0 0 -263 0 -264 96 -127 c65 -87 92 -131 86
-139 -5 -7 -48 -64 -96 -128 l-86 -117 0 -261 0 -261 30 0 31 0 -2 255 -1 255
82 110 c45 60 83 110 85 110 1 0 41 -51 89 -114 l87 -115 -1 -245 -1 -246
-182 -244 c-100 -134 -184 -245 -187 -245 -3 0 -87 110 -187 244 l-183 245 0
247 0 248 104 137 103 136 -103 136 -104 135 0 247 0 247 182 243 c101 134
185 244 188 244 3 -1 87 -110 188 -244z"/>
<path d="M2516 3347 c3 -10 9 -15 12 -12 3 3 0 11 -7 18 -10 9 -11 8 -5 -6z"/>
<path d="M2096 1518 c3 -5 10 -6 15 -3 13 9 11 12 -6 12 -8 0 -12 -4 -9 -9z"/>
<path d="M3440 3767 c0 -2 6 -10 14 -16 11 -9 16 -9 22 1 4 7 4 10 -1 6 -4 -4
-14 -3 -22 3 -7 6 -13 9 -13 6z"/>
<path d="M899 2687 c6 -8 7 -18 3 -22 -4 -5 -1 -5 6 -1 10 6 10 11 1 22 -6 8
-14 14 -16 14 -3 0 0 -6 6 -13z"/>
<path d="M1960 2520 c-9 -6 -10 -10 -3 -10 6 0 15 5 18 10 8 12 4 12 -15 0z"/>
<path d="M1725 1641 c-3 -5 -2 -12 3 -15 5 -3 9 1 9 9 0 17 -3 19 -12 6z"/>
</g>
</svg>
